<svg width="33" height="27" viewBox="0 0 33 27" fill="none" xmlns="http://www.w3.org/2000/svg">
<path d="M32.667 3.25328C31.4643 3.77504 30.1925 4.11995 28.891 4.27728C30.2641 3.457 31.293 2.16654 31.787 0.645285C30.4967 1.41339 29.0842 1.95456 27.611 2.24528C26.6263 1.1774 25.3149 0.466559 23.8827 0.224247C22.4504 -0.0180649 20.9783 0.221858 19.6971 0.906388C18.4159 1.59092 17.3981 2.68133 16.8034 4.00662C16.2087 5.33191 16.0707 6.81711 16.411 8.22928C13.8021 8.09733 11.2501 7.41801 8.92084 6.23546C6.59158 5.05292 4.53715 3.39359 2.89099 1.36528C2.31361 2.37355 2.01022 3.5154 2.01099 4.67728C2.00894 5.7563 2.27374 6.81907 2.7818 7.77099C3.28986 8.7229 4.02542 9.53442 4.92299 10.1333C3.87976 10.1049 2.85881 9.82496 1.94699 9.31728V9.39728C1.95481 10.9091 2.48458 12.3718 3.4467 13.538C4.40881 14.7042 5.7442 15.5023 7.22699 15.7973C6.6562 15.971 6.06359 16.0626 5.46699 16.0693C5.05402 16.0645 4.64207 16.027 4.23499 15.9573C4.65725 17.2578 5.47439 18.3943 6.57271 19.2087C7.67104 20.0232 8.99591 20.475 10.363 20.5013C8.05452 22.3177 5.20441 23.3091 2.26699 23.3173C1.73217 23.319 1.19777 23.287 0.666992 23.2213C3.66608 25.1577 7.16109 26.1856 10.731 26.1813C13.1945 26.2069 15.6384 25.7413 17.92 24.8118C20.2015 23.8823 22.275 22.5075 24.0193 20.7677C25.7636 19.0279 27.1437 16.9579 28.0791 14.6787C29.0144 12.3996 29.4863 9.95685 29.467 7.49328C29.467 7.22128 29.467 6.93328 29.467 6.64528C30.7225 5.70898 31.8054 4.56116 32.667 3.25328Z" fill="#F7F9FC"/>
</svg>
