<svg width="46" height="46" viewBox="0 0 34 34" fill="none" xmlns="http://www.w3.org/2000/svg">
<path d="M11.4942 25.5531L3.87541 33.1791C3.46289 33.5698 2.91628 33.7876 2.34807 33.7876C1.77985 33.7876 1.23324 33.5698 0.820723 33.1791C0.619704 32.9788 0.460205 32.7407 0.351375 32.4786C0.242545 32.2165 0.186523 31.9355 0.186523 31.6517C0.186523 31.3679 0.242545 31.0869 0.351375 30.8248C0.460205 30.5628 0.619704 30.3247 0.820723 30.1244L8.44666 22.5056C8.64406 22.2938 8.88212 22.1239 9.14661 22.006C9.41111 21.8882 9.69664 21.8248 9.98616 21.8197C10.2757 21.8146 10.5633 21.8678 10.8318 21.9763C11.1002 22.0847 11.3441 22.2462 11.5489 22.4509C11.7536 22.6557 11.9151 22.8996 12.0235 23.1681C12.132 23.4365 12.1852 23.7241 12.1801 24.0136C12.175 24.3032 12.1116 24.5887 11.9938 24.8532C11.8759 25.1177 11.706 25.3557 11.4942 25.5531ZM21.6645 24.5541C19.2478 24.5541 16.8855 23.8375 14.8761 22.4949C12.8667 21.1522 11.3006 19.2439 10.3758 17.0112C9.45101 14.7786 9.20904 12.3218 9.6805 9.95157C10.152 7.58137 11.3157 5.40419 13.0245 3.69537C14.7333 1.98655 16.9105 0.822826 19.2807 0.351363C21.6509 -0.120101 24.1077 0.121871 26.3404 1.04668C28.5731 1.97149 30.4814 3.5376 31.824 5.54696C33.1666 7.55632 33.8832 9.91869 33.8832 12.3353C33.8832 15.5759 32.5959 18.6838 30.3044 20.9753C28.013 23.2668 24.9051 24.5541 21.6645 24.5541ZM21.6645 2.27283C18.9957 2.27283 16.4363 3.33299 14.5492 5.22007C12.6621 7.10716 11.602 9.66659 11.602 12.3353C11.602 15.0041 12.6621 17.5635 14.5492 19.4506C16.4363 21.3377 18.9957 22.3978 21.6645 22.3978C22.0271 22.4002 22.3895 22.381 22.7498 22.3403C23.2057 22.2891 23.6573 22.2051 24.101 22.0888C25.7463 21.6803 27.2603 20.859 28.4998 19.7025C28.7535 19.4547 28.9934 19.1932 29.2185 18.9191C30.4772 17.4643 31.2925 15.6793 31.5678 13.7754C31.8432 11.8716 31.567 9.92869 30.7721 8.17695C29.9771 6.42522 28.6967 4.93805 27.0826 3.89165C25.4684 2.84524 23.5881 2.28345 21.6645 2.27283ZM21.6645 3.71033C23.2513 3.70991 24.8075 4.14725 26.1618 4.97423C27.516 5.80121 28.6159 6.98577 29.3404 8.39755C30.0649 9.80933 30.3858 11.3936 30.2679 12.976C30.1501 14.5585 29.5979 16.0777 28.6723 17.3666C26.8005 15.5304 24.283 14.5017 21.6609 14.5017C19.0388 14.5017 16.5213 15.5304 14.6495 17.3666C13.7235 16.0772 13.1713 14.5573 13.0537 12.9743C12.9361 11.3912 13.2577 9.80638 13.983 8.39435C14.7083 6.98233 15.8093 5.79787 17.1646 4.97142C18.5199 4.14497 20.077 3.70859 21.6645 3.71033ZM20.766 20.9172L20.4713 20.8741C20.2773 20.8741 20.0832 20.8166 19.8892 20.7735L19.5513 20.6944L19.0338 20.5506C18.9188 20.5506 18.8038 20.4644 18.6888 20.4213C18.5738 20.3781 18.3654 20.3063 18.2073 20.2344L17.8695 20.0763L17.4167 19.875L17.0932 19.681C16.9495 19.5947 16.8129 19.4941 16.6692 19.4006L16.3673 19.1563C16.2307 19.0556 16.1013 18.9406 15.972 18.8256L15.6917 18.5741L15.5623 18.4375C17.178 16.8333 19.3625 15.933 21.6393 15.933C23.9162 15.933 26.1006 16.8333 27.7163 18.4375L27.6085 18.5525L27.3282 18.8113C27.1988 18.9191 27.0695 19.0341 26.9329 19.1347C26.7963 19.2353 26.7317 19.2928 26.6238 19.3647C26.516 19.4366 26.3507 19.5588 26.207 19.645L25.8835 19.8391L25.4307 20.0763L25.0929 20.2344C24.9348 20.3063 24.7767 20.3638 24.6185 20.4213L24.2663 20.5506L23.7488 20.6944L23.411 20.7735C23.217 20.8166 23.0229 20.8453 22.8288 20.8741L22.5342 20.9172C22.2395 20.9172 21.9376 20.9603 21.6429 20.9603C21.3482 20.9603 21.0607 20.946 20.766 20.9172ZM21.6645 13.0541C22.3752 13.0541 23.0701 12.8433 23.6611 12.4484C24.252 12.0535 24.7127 11.4923 24.9847 10.8356C25.2567 10.1789 25.3278 9.45635 25.1892 8.75923C25.0505 8.06211 24.7082 7.42176 24.2056 6.91917C23.703 6.41657 23.0627 6.0743 22.3656 5.93564C21.6685 5.79697 20.9459 5.86814 20.2892 6.14014C19.6325 6.41214 19.0713 6.87276 18.6764 7.46375C18.2815 8.05474 18.0707 8.74956 18.0707 9.46033C18.0707 10.4135 18.4494 11.3275 19.1233 12.0015C19.7973 12.6755 20.7114 13.0541 21.6645 13.0541ZM21.6645 7.30408C22.0909 7.30408 22.5078 7.43054 22.8624 7.66748C23.217 7.90441 23.4934 8.24117 23.6566 8.63517C23.8198 9.02918 23.8625 9.46272 23.7793 9.881C23.6961 10.2993 23.4907 10.6835 23.1892 10.985C22.8876 11.2866 22.5034 11.492 22.0851 11.5752C21.6669 11.6584 21.2333 11.6157 20.8393 11.4524C20.4453 11.2892 20.1085 11.0129 19.8716 10.6583C19.6347 10.3037 19.5082 9.8868 19.5082 9.46033C19.5082 9.17717 19.564 8.89678 19.6724 8.63517C19.7807 8.37356 19.9395 8.13586 20.1398 7.93563C20.34 7.73541 20.5777 7.57658 20.8393 7.46822C21.1009 7.35986 21.3813 7.30408 21.6645 7.30408Z" fill="white"/>
</svg>
