<svg width="46" height="46" viewBox="0 0 46 46" fill="none" xmlns="http://www.w3.org/2000/svg">
<path d="M23.7188 3.59375L24.5813 4.74375L25.7312 3.88125L23.575 1.00625C23.5051 0.921349 23.4174 0.852974 23.3179 0.80603C23.2185 0.759087 23.1099 0.734741 23 0.734741C22.8901 0.734741 22.7815 0.759087 22.6821 0.80603C22.5826 0.852974 22.4949 0.921349 22.425 1.00625L20.2688 3.88125L21.4187 4.74375L22.2812 3.59375V8.625H23.7188V3.59375ZM23.7188 42.4062V37.375H22.2812V42.4062L21.4187 41.2562L20.2688 42.1187L22.425 44.9937C22.4919 45.083 22.5788 45.1555 22.6786 45.2054C22.7784 45.2553 22.8884 45.2812 23 45.2812C23.1116 45.2812 23.2216 45.2553 23.3214 45.2054C23.4212 45.1555 23.5081 45.083 23.575 44.9937L25.7312 42.1187L24.5813 41.2562L23.7188 42.4062ZM12.3273 32.6571L4.7035 40.2802L4.90691 38.8571L3.48378 38.6529L2.97562 42.2115C2.96111 42.3134 2.96866 42.4172 2.99776 42.516C3.02686 42.6147 3.07684 42.7061 3.14431 42.7838C3.21178 42.8616 3.29517 42.924 3.38883 42.9667C3.48249 43.0094 3.58424 43.0316 3.68719 43.0316C3.7211 43.0317 3.75497 43.0293 3.78853 43.0244L7.34634 42.5162L7.14294 41.0931L5.71981 41.2965L13.3436 33.6734L12.3273 32.6571ZM42.5162 7.34706L43.0244 3.78853C43.0401 3.67811 43.0299 3.56555 42.9946 3.45976C42.9593 3.35396 42.8999 3.25782 42.821 3.17896C42.7422 3.1001 42.646 3.04067 42.5402 3.00538C42.4344 2.97008 42.3219 2.9599 42.2115 2.97562L38.6537 3.48378L38.8571 4.9069L40.2802 4.7035L32.6564 12.3266L33.6727 13.3429L41.2965 5.71981L41.0931 7.14293L42.5162 7.34706ZM13.3436 12.3266L5.71981 4.7035L7.14294 4.9069L7.34634 3.48378L3.78853 2.97562C3.67812 2.9599 3.56556 2.97008 3.45976 3.00538C3.35396 3.04067 3.25783 3.1001 3.17896 3.17896C3.1001 3.25782 3.04067 3.35396 3.00538 3.45976C2.97009 3.56555 2.9599 3.67811 2.97562 3.78853L3.48378 7.34706L4.90691 7.14293L4.7035 5.71981L12.3273 13.3429L13.3436 12.3266ZM41.0931 38.8571L41.2965 40.2802L35.1979 34.1816L34.1816 35.1979L40.2802 41.2965L38.8571 41.0931L38.6537 42.5162L42.2115 43.0244C42.245 43.0293 42.2789 43.0317 42.3128 43.0316C42.4158 43.0316 42.5175 43.0094 42.6112 42.9667C42.7048 42.924 42.7882 42.8616 42.8557 42.7838C42.9232 42.7061 42.9731 42.6147 43.0022 42.516C43.0313 42.4172 43.0389 42.3134 43.0244 42.2115L42.5162 38.6529L41.0931 38.8571ZM42.1187 20.2687L41.2563 21.4187L42.4062 22.2812H37.375V23.7187H42.4062L41.2563 24.5812L42.1187 25.7312L44.9937 23.575C45.083 23.508 45.1555 23.4212 45.2054 23.3214C45.2553 23.2216 45.2812 23.1116 45.2812 23C45.2812 22.8884 45.2553 22.7784 45.2054 22.6786C45.1555 22.5788 45.083 22.4919 44.9937 22.425L42.1187 20.2687ZM4.74375 24.5812L3.59375 23.7187H8.625V22.2812H3.59375L4.74375 21.4187L3.88125 20.2687L1.00625 22.425C0.916984 22.4919 0.844532 22.5788 0.79463 22.6786C0.744729 22.7784 0.71875 22.8884 0.71875 23C0.71875 23.1116 0.744729 23.2216 0.79463 23.3214C0.844532 23.4212 0.916984 23.508 1.00625 23.575L3.88125 25.7312L4.74375 24.5812ZM29.2891 23.5391C28.1518 23.5391 27.0401 23.8763 26.0945 24.5081C25.149 25.1399 24.412 26.038 23.9768 27.0886C23.5416 28.1393 23.4277 29.2954 23.6495 30.4108C23.8714 31.5262 24.419 32.5508 25.2232 33.3549C26.0274 34.1591 27.0519 34.7067 28.1673 34.9286C29.2827 35.1504 30.4388 35.0366 31.4895 34.6014C32.5402 34.1662 33.4382 33.4292 34.07 32.4836C34.7018 31.538 35.0391 30.4263 35.0391 29.2891C35.0373 27.7646 34.431 26.303 33.353 25.2251C32.2751 24.1471 30.8135 23.5408 29.2891 23.5391ZM31.8047 32.7843C31.0735 33.3155 30.1929 33.6016 29.2891 33.6016C28.3853 33.6016 27.5047 33.3155 26.7734 32.7843V30.0078C26.7734 29.6266 26.9249 29.2609 27.1945 28.9913C27.4641 28.7218 27.8297 28.5703 28.2109 28.5703H29.2891C29.0048 28.5703 28.7268 28.486 28.4904 28.328C28.254 28.1701 28.0698 27.9456 27.961 27.6829C27.8522 27.4202 27.8237 27.1312 27.8792 26.8524C27.9347 26.5735 28.0716 26.3174 28.2726 26.1163C28.4736 25.9153 28.7298 25.7784 29.0086 25.7229C29.2875 25.6675 29.5765 25.6959 29.8392 25.8047C30.1018 25.9135 30.3263 26.0978 30.4843 26.3342C30.6423 26.5706 30.7266 26.8485 30.7266 27.1328C30.7266 27.5141 30.5751 27.8797 30.3055 28.1493C30.0359 28.4189 29.6703 28.5703 29.2891 28.5703H30.3672C30.7484 28.5703 31.1141 28.7218 31.3837 28.9913C31.6532 29.2609 31.8047 29.6266 31.8047 30.0078V32.7843ZM35.7463 22.4609C35.6479 20.081 34.8812 17.7769 33.534 15.8125C32.3341 16.2468 31.099 16.577 29.8425 16.7993C30.3297 18.6481 30.5903 20.5493 30.6187 22.4609H35.7463ZM19.3631 10.7848C16.9248 11.5122 14.759 12.9507 13.1431 14.9162C14.2287 15.2842 15.341 15.5682 16.4702 15.7658C17.0263 13.8997 18.0179 12.1926 19.3631 10.7848ZM15.3812 22.4609C15.4098 20.5507 15.6705 18.651 16.1575 16.8037C14.9011 16.5797 13.6659 16.2496 12.4653 15.8168C11.1187 17.7798 10.3522 20.0825 10.2537 22.4609H15.3812ZM26.6369 10.7848C27.9822 12.1922 28.9738 13.8992 29.5298 15.7651C30.6593 15.5688 31.7717 15.2847 32.8569 14.9155C31.2408 12.9504 29.075 11.5122 26.6369 10.7848ZM28.7773 16.9833C27.0424 17.2368 25.2923 17.3728 23.5391 17.3902V22.4609H29.5406C29.5116 20.6107 29.2552 18.771 28.7773 16.9833ZM23.5391 16.3156C25.1843 16.2985 26.8268 16.1746 28.456 15.9447C27.3736 12.7873 25.5889 10.626 23.5391 10.299V16.3156ZM22.4609 17.3937C20.7076 17.3771 18.9574 17.2404 17.2227 16.9848C16.7454 18.7721 16.489 20.6112 16.4594 22.4609H22.4609V17.3937ZM22.4609 10.2954C20.4118 10.6224 18.6271 12.783 17.5447 15.939C19.1734 16.1713 20.8158 16.2959 22.4609 16.312V10.2954ZM16.1575 29.1971C15.6705 27.3495 15.4098 25.4495 15.3812 23.5391H10.2537C10.3526 25.9171 11.1187 28.2194 12.4646 30.1825C13.6651 29.7489 14.9006 29.4192 16.1575 29.1971ZM17.2227 29.0167C18.9577 28.764 20.7077 28.6285 22.4609 28.6113V23.5391H16.4594C16.4884 25.3893 16.7448 27.229 17.2227 29.0167ZM22.4609 29.6894C20.8157 29.7064 19.1733 29.8298 17.544 30.0588C18.6264 33.2163 20.4111 35.3776 22.4609 35.7046V29.6894ZM13.1423 31.0831C14.7579 33.0502 16.924 34.4903 19.3631 35.2187C18.0179 33.811 17.0263 32.1038 16.4702 30.2378C15.3407 30.4329 14.228 30.7155 13.1423 31.0831Z" fill="white"/>
</svg>
