<svg width="23" height="16" viewBox="0 0 23 16" fill="none" xmlns="http://www.w3.org/2000/svg">
<path d="M7.50549 15.6235C7.4002 15.6241 7.29583 15.6039 7.19836 15.5641C7.10089 15.5243 7.01224 15.4657 6.93749 15.3915L0.905486 9.35951C0.756485 9.20962 0.672852 9.00686 0.672852 8.79551C0.672852 8.58416 0.756485 8.3814 0.905486 8.23151C0.979856 8.15653 1.06834 8.09702 1.16582 8.0564C1.26331 8.01579 1.36788 7.99488 1.47349 7.99488C1.5791 7.99488 1.68366 8.01579 1.78115 8.0564C1.87863 8.09702 1.96712 8.15653 2.04149 8.23151L7.50549 13.6955L20.8175 0.383513C20.9674 0.234512 21.1701 0.150879 21.3815 0.150879C21.5928 0.150879 21.7956 0.234512 21.9455 0.383513C22.0205 0.457883 22.08 0.546364 22.1206 0.643852C22.1612 0.741339 22.1821 0.845903 22.1821 0.951513C22.1821 1.05712 22.1612 1.16169 22.1206 1.25917C22.08 1.35666 22.0205 1.44514 21.9455 1.51951L8.06549 15.3915C7.91648 15.5393 7.71536 15.6226 7.50549 15.6235Z" fill="#202733"/>
</svg>
