<svg width="28" height="28" viewBox="0 0 28 28" fill="none" xmlns="http://www.w3.org/2000/svg">
<path d="M23.7536 4.24657C18.3665 -1.14046 9.63385 -1.14046 4.24682 4.24657C-1.14022 9.63361 -1.14022 18.3663 4.24682 23.7533C9.63385 29.1404 18.3665 29.1404 23.7536 23.7533C29.1406 18.3663 29.1395 9.63361 23.7536 4.24657V4.24657ZM21.507 10.5892L13.1252 18.9721C12.9182 19.179 12.6376 19.2952 12.345 19.2952C12.0524 19.2952 11.7718 19.179 11.5649 18.9721L6.49344 13.8995C6.39099 13.7971 6.30972 13.6755 6.25428 13.5416C6.19883 13.4078 6.1703 13.2643 6.1703 13.1194C6.1703 12.8268 6.28653 12.5462 6.49344 12.3393C6.70035 12.1324 6.98097 12.0161 7.27358 12.0161C7.56619 12.0161 7.84681 12.1324 8.05372 12.3393L12.345 16.6306L19.9467 9.02782C20.0492 8.92537 20.1709 8.84411 20.3048 8.7887C20.4387 8.73328 20.5823 8.70478 20.7272 8.70483C20.8721 8.70489 21.0157 8.73348 21.1495 8.789C21.2834 8.84451 21.4051 8.92585 21.5075 9.02837C21.61 9.13089 21.6912 9.25259 21.7466 9.38651C21.802 9.52043 21.8305 9.66396 21.8305 9.8089C21.8304 9.95383 21.8018 10.0973 21.7463 10.2312C21.6908 10.3651 21.6095 10.4867 21.507 10.5892V10.5892Z" fill="#202733"/>
</svg>
