<svg width="46" height="44" viewBox="0 0 46 44" fill="none" xmlns="http://www.w3.org/2000/svg">
<path d="M7.7625 12.6203C10.0625 12.6203 11.9313 10.7516 11.9313 8.45158C11.9313 6.15158 10.0625 4.28283 7.7625 4.28283C5.4625 4.28283 3.59375 6.15158 3.59375 8.45158C3.59375 10.7516 5.46969 12.6203 7.7625 12.6203ZM11.7228 14.8413H3.80938C1.71063 14.8413 0 16.5519 0 18.6506V28.2603C0 28.9503 0.553438 29.511 1.24344 29.511C1.93344 29.511 2.49406 28.9503 2.49406 28.2603V21.9497C2.49406 21.6191 2.76719 21.346 3.09781 21.346C3.43563 21.346 3.70156 21.6191 3.70156 21.9497V41.4638C3.70156 42.4125 4.47781 43.1888 5.42656 43.1888C6.37531 43.1888 7.15156 42.4197 7.15875 41.471V31.0635C7.15875 30.7328 7.43188 30.4597 7.7625 30.4597C8.10031 30.4597 8.36625 30.7328 8.36625 31.0635V41.4781C8.36625 42.4269 9.13531 43.196 10.0841 43.196C11.0328 43.196 11.8019 42.4269 11.8019 41.4781V21.9497C11.8019 21.6191 12.075 21.346 12.4056 21.346C12.7434 21.346 13.0094 21.6191 13.0094 21.9497V28.2316L13.0166 28.2531C13.0166 28.9431 13.5772 29.5038 14.2672 29.5038C14.9572 29.5038 15.5178 28.9431 15.5178 28.2531V18.6506C15.5322 16.5519 13.8216 14.8413 11.7228 14.8413ZM19.2697 2.96751H45.2309H45.2525C45.655 2.91001 45.9641 2.44283 45.9641 1.88939C45.9641 1.29283 45.6047 0.804077 45.1662 0.804077H19.3128C18.8744 0.804077 18.515 1.29283 18.515 1.88939C18.515 2.44283 18.8241 2.90283 19.2697 2.96751ZM45.6119 20.0235C45.5903 20.0019 45.5688 19.9875 45.54 19.9731C45.5256 19.966 45.5184 19.9588 45.5041 19.9516C45.3891 19.8869 45.2597 19.8581 45.1159 19.8869H19.3559H19.2697C18.8744 19.7935 18.5222 20.275 18.5222 20.8716C18.5222 21.425 18.8241 21.8922 19.2697 21.9497H26.9028L22.9569 36.8781C22.8203 37.4028 23.1294 37.9419 23.6684 38.0785C23.7547 38.1 23.8337 38.1072 23.9128 38.1072C24.3584 38.1072 24.7466 37.8053 24.8616 37.3741L28.75 22.6756L28.9009 22.115C28.9153 22.0647 28.9081 22.0072 28.9081 21.9569H31.2944V34.8656C31.2944 35.4119 31.7328 35.8503 32.2791 35.8503C32.8253 35.8503 33.2637 35.4119 33.2637 34.8656V21.9569H35.6572C35.6644 22.0072 35.65 22.0647 35.6644 22.115L35.8153 22.6756L39.7038 37.3885C39.8188 37.8197 40.2069 38.1144 40.6597 38.1144C40.7388 38.1144 40.825 38.1072 40.9112 38.0856C41.1628 38.021 41.3784 37.8556 41.5078 37.6328C41.6372 37.4028 41.6731 37.1441 41.6084 36.8853L37.6553 21.9569H45.2309H45.2525C45.6334 21.8994 45.9209 21.4753 45.9497 20.9578C45.9784 20.8716 46.0072 20.7853 46.0072 20.6919C46 20.4044 45.8419 20.16 45.6119 20.0235ZM44.4906 18.7585V4.10314H20.0675V18.7585H44.4906ZM38.87 6.10845C38.87 5.69876 39.2006 5.36814 39.6103 5.36814C40.0272 5.36814 40.3506 5.69876 40.3506 6.10845V16.746C40.3506 17.1628 40.0272 17.4863 39.6103 17.4863C39.2006 17.4863 38.87 17.1628 38.87 16.746V6.10845ZM34.0256 8.87564C34.0256 8.48751 34.3419 8.17845 34.7228 8.17845C35.1109 8.17845 35.42 8.4947 35.42 8.87564V16.5663C35.42 16.9616 35.1038 17.2635 34.7228 17.2635C34.3347 17.2635 34.0256 16.9544 34.0256 16.5663V8.87564ZM29.1238 11.305C29.1238 10.9097 29.44 10.5935 29.8353 10.5935C30.2234 10.5935 30.5469 10.9097 30.5469 11.305V16.7028C30.5469 17.0981 30.2306 17.4144 29.8353 17.4144C29.44 17.4144 29.1238 17.0981 29.1238 16.7028V11.305ZM24.2866 13.4181C24.2866 13.0516 24.5812 12.7569 24.9478 12.7569C25.3144 12.7569 25.6091 13.0516 25.6091 13.4181V16.6381C25.6091 17.0047 25.3216 17.2994 24.9478 17.2994C24.5812 17.2994 24.2866 17.0119 24.2866 16.6381V13.4181Z" fill="white"/>
</svg>
